<?xml version="1.0" standalone="no"?>
<!DOCTYPE svg PUBLIC "-//W3C//DTD SVG 20010904//EN"
 "http://www.w3.org/TR/2001/REC-SVG-20010904/DTD/svg10.dtd">
<svg version="1.0" xmlns="http://www.w3.org/2000/svg"
 width="1572.000000pt" height="1600.000000pt" viewBox="0 0 1572.000000 1600.000000"
 preserveAspectRatio="xMidYMid meet">

<g transform="translate(0.000000,1600.000000) scale(0.100000,-0.100000)"
fill="#000000" stroke="none">
<path d="M7525 14389 c-1253 -64 -2477 -506 -3480 -1256 -823 -615 -1478
-1403 -1926 -2318 -345 -703 -535 -1378 -626 -2210 -22 -202 -25 -957 -5
-1155 57 -566 143 -980 302 -1460 225 -679 538 -1276 969 -1848 304 -403 708
-819 1106 -1138 900 -723 1979 -1187 3120 -1344 517 -71 1077 -78 1600 -19
2149 241 4030 1558 5001 3499 373 747 578 1484 656 2360 17 189 17 809 0 1000
-76 861 -280 1597 -647 2339 -470 948 -1161 1759 -2025 2375 -1174 837 -2593
1250 -4045 1175z m790 -20 c571 -38 1172 -164 1706 -358 460 -166 931 -401
1334 -665 898 -588 1631 -1390 2139 -2336 902 -1682 999 -3706 263 -5470 -658
-1576 -1927 -2829 -3514 -3469 -1283 -517 -2731 -600 -4069 -232 -1401 385
-2619 1230 -3484 2416 -922 1266 -1342 2852 -1174 4430 264 2485 1973 4598
4352 5382 786 258 1602 359 2447 302z"/>
<path d="M3390 7890 l0 -2370 155 0 155 0 0 1353 c0 743 -5 1539 -10 1767 -15
657 -29 1137 -36 1238 -5 76 -3 92 8 92 15 0 46 -67 448 -970 182 -409 283
-645 645 -1500 45 -107 126 -298 180 -425 54 -126 135 -318 180 -425 46 -107
127 -301 182 -430 55 -129 144 -340 198 -467 l98 -233 151 0 151 0 257 623
c141 342 424 1027 628 1522 407 987 405 982 752 1763 163 367 246 542 256 542
13 0 14 -25 8 -187 -34 -953 -46 -1734 -46 -3125 l0 -1138 155 0 155 0 0 2370
0 2370 -243 0 -243 0 -71 -172 c-40 -95 -166 -398 -281 -673 -115 -275 -313
-747 -440 -1050 -126 -302 -312 -746 -412 -985 -100 -239 -195 -464 -209 -500
-320 -767 -416 -990 -425 -987 -6 2 -115 260 -242 573 -127 313 -308 749 -403
969 -95 220 -233 540 -306 710 -73 171 -249 578 -390 905 -141 327 -315 733
-388 903 l-132 307 -242 0 -243 0 0 -2370z"/>
<path d="M10050 7890 l0 -2370 155 0 155 0 0 1150 0 1150 1070 0 1070 0 0 140
0 140 -1070 0 -1070 0 0 940 0 940 1175 0 1176 0 -3 138 -3 137 -1327 3 -1328
2 0 -2370z"/>
</g>
</svg>
